<svg id="visual" viewBox="0 0 900 600" width="900" height="600" xmlns="http://www.w3.org/2000/svg" xmlns:xlink="http://www.w3.org/1999/xlink" version="1.1"><g transform="translate(450.7216447014927 304.47298685351416)"><path d="M149.6 -208.2C191.5 -175.5 221.3 -128.5 239.3 -76.8C257.4 -25.1 263.8 31.3 249.3 82.7C234.9 134 199.8 180.3 154.7 209.4C109.7 238.5 54.9 250.5 -2 253.2C-58.8 255.9 -117.6 249.3 -160.2 219.4C-202.8 189.5 -229.3 136.3 -244.6 81.3C-260 26.4 -264.1 -30.4 -250.4 -84.2C-236.8 -137.9 -205.4 -188.7 -160.7 -220.5C-116 -252.3 -58 -265.2 -2.1 -262.3C53.9 -259.5 107.8 -241 149.6 -208.2" fill="#ddddff"></path></g></svg>