<svg xmlns="http://www.w3.org/2000/svg" enable-background="new 0 0 80 80" viewBox="0 0 80 80"><path d="M8.0151367 39.9038086c2.9199219 6.4667969 7.8925781 13.4731445 13.6425781 19.2231445 6.1328125 6.1328125 12.8989258 10.9892578 19.0522461 13.6738281 3.3500977 1.4619141 6.347168 2.1928711 8.8691406 2.1928711 2.5092773 0 4.5478516-.7236328 5.9951172-2.1713867l5.8037109-5.8027344c1.7631836-1.7646484 1.6049805-4.7929688-.3530273-6.7519531l-8.5522461-8.5527344c-1.9589844-1.9575195-4.9887695-2.1152344-6.7519531-.3520508l-2.6630859 2.6630859c-.7373047.5517578-5.2983398-.8530273-10.4301758-5.984375-5.1333008-5.1328125-6.5410156-9.6967773-5.9868164-10.4277344l2.6660156-2.6655273c1.7636719-1.7646484 1.6054688-4.7939453-.3530273-6.7519531l-8.5522461-8.5527344c-1.9594727-1.9580078-4.9882812-2.1162109-6.7519531-.3520508L7.8466797 25.09375C4.9501953 27.9897461 5.0097656 33.2495117 8.0151367 39.9038086zM10.6748047 27.9223633l5.8027344-5.8027344c.0400391-.0400391.1196289-.0634766.2231445-.0634766.2265625 0 .5693359.1132812.8725586.4160156l8.5522461 8.5522461c.4418945.4418945.4794922.9682617.3525391 1.0952148l-2.6660156 2.6655273c-3.3144531 3.3154297.5029297 10.6010742 5.9873047 16.0844727 2.730957 2.730957 5.7338867 4.9121094 8.4560547 6.1416016 4.4804688 2.0234375 6.7021484.7719727 7.6279297-.1547852l2.6655273-2.6655273c.128418-.1274414.6533203-.0888672 1.0957031.3525391l8.5517578 8.5522461c.4418945.4418945.4799805.9682617.3530273 1.0957031l-5.8032227 5.8027344c-1.6103516 1.6108398-5.5112305 1.2900391-10.4365234-.859375-5.7060547-2.4897461-12.0356445-7.0483398-17.8237305-12.8359375-5.4213867-5.421875-10.0961914-11.9975586-12.8251953-18.0415039C9.4550781 33.3740234 9.0864258 29.5107422 10.6748047 27.9223633zM74.2949219 44.3374023C74.2949219 22.6464844 56.6484375 5 34.9580078 5v4c19.4848633 0 35.3369141 15.8525391 35.3369141 35.3374023H74.2949219z"/><path d="M35.7006836,15.9257812v4c13.8701172,0,25.1542969,11.2841797,25.1542969,25.1542969h4
	C64.8549805,29.0043945,51.7763672,15.9257812,35.7006836,15.9257812z"/><path d="M50.6723633,45.0800781h4c0-10.4609375-8.5107422-18.9716797-18.9716797-18.9716797v4
	C43.9560547,30.1083984,50.6723633,36.824707,50.6723633,45.0800781z"/></svg>